<mxfile host="app.diagrams.net" agent="Mozilla/5.0 (Windows NT 10.0; Win64; x64) AppleWebKit/537.36 (KHTML, like Gecko) Chrome/137.0.0.0 Safari/537.36" version="27.1.4">
  <diagram name="第 1 页" id="fEAc7jZ2OqMn0KUkoP6a">
    <mxGraphModel dx="689" dy="1548" grid="1" gridSize="10" guides="1" tooltips="1" connect="1" arrows="1" fold="1" page="1" pageScale="1" pageWidth="827" pageHeight="1169" math="0" shadow="0">
      <root>
        <mxCell id="0" />
        <mxCell id="1" parent="0" />
        <mxCell id="oVFW0ciJWdJijqjCQ00f-114" value="" style="rounded=0;whiteSpace=wrap;html=1;dashed=1;dashPattern=8 8;" vertex="1" parent="1">
          <mxGeometry x="820" y="-80" width="160" height="100" as="geometry" />
        </mxCell>
        <mxCell id="oVFW0ciJWdJijqjCQ00f-110" value="" style="rounded=0;whiteSpace=wrap;html=1;dashed=1;dashPattern=8 8;" vertex="1" parent="1">
          <mxGeometry x="500" y="-80" width="310" height="100" as="geometry" />
        </mxCell>
        <mxCell id="oVFW0ciJWdJijqjCQ00f-109" value="" style="rounded=0;whiteSpace=wrap;html=1;dashed=1;dashPattern=8 8;" vertex="1" parent="1">
          <mxGeometry x="265" y="-80" width="225" height="100" as="geometry" />
        </mxCell>
        <mxCell id="oVFW0ciJWdJijqjCQ00f-101" value="" style="rounded=0;whiteSpace=wrap;html=1;dashed=1;dashPattern=8 8;" vertex="1" parent="1">
          <mxGeometry x="30" y="-80" width="230" height="100" as="geometry" />
        </mxCell>
        <mxCell id="oVFW0ciJWdJijqjCQ00f-1" value="" style="rounded=0;whiteSpace=wrap;html=1;fillColor=#f5f5f5;strokeColor=#666666;fontColor=#333333;" vertex="1" parent="1">
          <mxGeometry x="70" y="230" width="490" height="130" as="geometry" />
        </mxCell>
        <mxCell id="oVFW0ciJWdJijqjCQ00f-117" style="edgeStyle=orthogonalEdgeStyle;rounded=0;orthogonalLoop=1;jettySize=auto;html=1;entryX=0.5;entryY=1;entryDx=0;entryDy=0;fillColor=#fff2cc;strokeColor=#d6b656;dashed=1;dashPattern=8 8;" edge="1" parent="1" source="oVFW0ciJWdJijqjCQ00f-2" target="oVFW0ciJWdJijqjCQ00f-40">
          <mxGeometry relative="1" as="geometry">
            <Array as="points">
              <mxPoint x="240" y="170" />
              <mxPoint x="340" y="170" />
            </Array>
          </mxGeometry>
        </mxCell>
        <mxCell id="oVFW0ciJWdJijqjCQ00f-118" style="edgeStyle=orthogonalEdgeStyle;rounded=0;orthogonalLoop=1;jettySize=auto;html=1;entryX=0.5;entryY=1;entryDx=0;entryDy=0;fillColor=#fff2cc;strokeColor=#d6b656;dashed=1;dashPattern=8 8;" edge="1" parent="1" source="oVFW0ciJWdJijqjCQ00f-2" target="oVFW0ciJWdJijqjCQ00f-103">
          <mxGeometry relative="1" as="geometry">
            <Array as="points">
              <mxPoint x="240" y="170" />
              <mxPoint x="620" y="170" />
            </Array>
          </mxGeometry>
        </mxCell>
        <mxCell id="oVFW0ciJWdJijqjCQ00f-119" style="edgeStyle=orthogonalEdgeStyle;rounded=0;orthogonalLoop=1;jettySize=auto;html=1;entryX=0.5;entryY=1;entryDx=0;entryDy=0;fillColor=#fff2cc;strokeColor=#d6b656;dashed=1;dashPattern=8 8;" edge="1" parent="1" source="oVFW0ciJWdJijqjCQ00f-2" target="oVFW0ciJWdJijqjCQ00f-104">
          <mxGeometry relative="1" as="geometry">
            <Array as="points">
              <mxPoint x="240" y="170" />
              <mxPoint x="887" y="170" />
            </Array>
          </mxGeometry>
        </mxCell>
        <mxCell id="oVFW0ciJWdJijqjCQ00f-2" value="Cohort(group)" style="rounded=0;whiteSpace=wrap;html=1;fillColor=#f8cecc;strokeColor=#b85450;" vertex="1" parent="1">
          <mxGeometry x="160" y="220" width="120" height="30" as="geometry" />
        </mxCell>
        <mxCell id="oVFW0ciJWdJijqjCQ00f-57" style="edgeStyle=orthogonalEdgeStyle;rounded=0;orthogonalLoop=1;jettySize=auto;html=1;entryX=0.5;entryY=0;entryDx=0;entryDy=0;fillColor=#e1d5e7;strokeColor=#9673a6;" edge="1" parent="1" source="oVFW0ciJWdJijqjCQ00f-3" target="oVFW0ciJWdJijqjCQ00f-27">
          <mxGeometry relative="1" as="geometry" />
        </mxCell>
        <mxCell id="oVFW0ciJWdJijqjCQ00f-71" style="edgeStyle=orthogonalEdgeStyle;rounded=0;orthogonalLoop=1;jettySize=auto;html=1;entryX=0.25;entryY=1;entryDx=0;entryDy=0;fillColor=#d5e8d4;strokeColor=#82b366;" edge="1" parent="1" source="oVFW0ciJWdJijqjCQ00f-3" target="oVFW0ciJWdJijqjCQ00f-2">
          <mxGeometry relative="1" as="geometry">
            <Array as="points">
              <mxPoint x="130" y="270" />
              <mxPoint x="190" y="270" />
            </Array>
          </mxGeometry>
        </mxCell>
        <mxCell id="oVFW0ciJWdJijqjCQ00f-126" style="edgeStyle=orthogonalEdgeStyle;rounded=0;orthogonalLoop=1;jettySize=auto;html=1;entryX=0.75;entryY=1;entryDx=0;entryDy=0;fillColor=#d5e8d4;strokeColor=#82b366;dashed=1;dashPattern=8 8;" edge="1" parent="1" source="oVFW0ciJWdJijqjCQ00f-3" target="oVFW0ciJWdJijqjCQ00f-25">
          <mxGeometry relative="1" as="geometry">
            <Array as="points">
              <mxPoint x="150" y="340" />
              <mxPoint x="500" y="340" />
            </Array>
          </mxGeometry>
        </mxCell>
        <mxCell id="oVFW0ciJWdJijqjCQ00f-3" value="ClusterQueue(user)" style="rounded=0;whiteSpace=wrap;html=1;fillColor=#d5e8d4;strokeColor=#82b366;" vertex="1" parent="1">
          <mxGeometry x="70" y="280" width="120" height="30" as="geometry" />
        </mxCell>
        <mxCell id="oVFW0ciJWdJijqjCQ00f-72" style="edgeStyle=orthogonalEdgeStyle;rounded=0;orthogonalLoop=1;jettySize=auto;html=1;fillColor=#d5e8d4;strokeColor=#82b366;" edge="1" parent="1" source="oVFW0ciJWdJijqjCQ00f-4" target="oVFW0ciJWdJijqjCQ00f-2">
          <mxGeometry relative="1" as="geometry">
            <Array as="points">
              <mxPoint x="300" y="270" />
              <mxPoint x="220" y="270" />
            </Array>
          </mxGeometry>
        </mxCell>
        <mxCell id="oVFW0ciJWdJijqjCQ00f-4" value="ClusterQueue(user)" style="rounded=0;whiteSpace=wrap;html=1;fillColor=#d5e8d4;strokeColor=#82b366;" vertex="1" parent="1">
          <mxGeometry x="240" y="280" width="120" height="30" as="geometry" />
        </mxCell>
        <mxCell id="oVFW0ciJWdJijqjCQ00f-5" value="CPU ResourceFlavor" style="rounded=0;whiteSpace=wrap;html=1;fillColor=#fff2cc;strokeColor=#d6b656;" vertex="1" parent="1">
          <mxGeometry x="40" y="70" width="120" height="30" as="geometry" />
        </mxCell>
        <mxCell id="oVFW0ciJWdJijqjCQ00f-73" style="edgeStyle=orthogonalEdgeStyle;rounded=0;orthogonalLoop=1;jettySize=auto;html=1;entryX=0.75;entryY=1;entryDx=0;entryDy=0;fillColor=#d5e8d4;strokeColor=#82b366;" edge="1" parent="1" source="oVFW0ciJWdJijqjCQ00f-25" target="oVFW0ciJWdJijqjCQ00f-2">
          <mxGeometry relative="1" as="geometry">
            <Array as="points">
              <mxPoint x="470" y="270" />
              <mxPoint x="250" y="270" />
            </Array>
          </mxGeometry>
        </mxCell>
        <mxCell id="oVFW0ciJWdJijqjCQ00f-25" value="ClusterQueue(pub)" style="rounded=0;whiteSpace=wrap;html=1;fillColor=#d5e8d4;strokeColor=#82b366;" vertex="1" parent="1">
          <mxGeometry x="410" y="280" width="120" height="30" as="geometry" />
        </mxCell>
        <mxCell id="oVFW0ciJWdJijqjCQ00f-65" value="" style="edgeStyle=orthogonalEdgeStyle;rounded=0;orthogonalLoop=1;jettySize=auto;html=1;fillColor=#dae8fc;strokeColor=#6c8ebf;" edge="1" parent="1" source="oVFW0ciJWdJijqjCQ00f-27" target="oVFW0ciJWdJijqjCQ00f-64">
          <mxGeometry relative="1" as="geometry" />
        </mxCell>
        <mxCell id="oVFW0ciJWdJijqjCQ00f-27" value="LocalQueue(user-ns)" style="rounded=0;whiteSpace=wrap;html=1;fillColor=#e1d5e7;strokeColor=#9673a6;" vertex="1" parent="1">
          <mxGeometry x="70" y="400" width="120" height="30" as="geometry" />
        </mxCell>
        <mxCell id="oVFW0ciJWdJijqjCQ00f-32" value="Node" style="rounded=0;whiteSpace=wrap;html=1;fillColor=#dae8fc;strokeColor=#6c8ebf;" vertex="1" parent="1">
          <mxGeometry x="40" y="-60" width="40" height="20" as="geometry" />
        </mxCell>
        <mxCell id="oVFW0ciJWdJijqjCQ00f-40" value="GPU ResourceFlavor" style="rounded=0;whiteSpace=wrap;html=1;fillColor=#fff2cc;strokeColor=#d6b656;" vertex="1" parent="1">
          <mxGeometry x="280" y="70" width="120" height="30" as="geometry" />
        </mxCell>
        <mxCell id="oVFW0ciJWdJijqjCQ00f-45" value="" style="rounded=0;whiteSpace=wrap;html=1;fillColor=#f5f5f5;strokeColor=#666666;fontColor=#333333;" vertex="1" parent="1">
          <mxGeometry x="590" y="230" width="370" height="130" as="geometry" />
        </mxCell>
        <mxCell id="oVFW0ciJWdJijqjCQ00f-46" value="Cohort(group)" style="rounded=0;whiteSpace=wrap;html=1;fillColor=#f8cecc;strokeColor=#b85450;" vertex="1" parent="1">
          <mxGeometry x="690" y="220" width="120" height="30" as="geometry" />
        </mxCell>
        <mxCell id="oVFW0ciJWdJijqjCQ00f-128" style="edgeStyle=orthogonalEdgeStyle;rounded=0;orthogonalLoop=1;jettySize=auto;html=1;entryX=0.5;entryY=1;entryDx=0;entryDy=0;exitX=0.75;exitY=1;exitDx=0;exitDy=0;dashed=1;dashPattern=8 8;fillColor=#d5e8d4;strokeColor=#82b366;" edge="1" parent="1" source="oVFW0ciJWdJijqjCQ00f-47" target="oVFW0ciJWdJijqjCQ00f-48">
          <mxGeometry relative="1" as="geometry" />
        </mxCell>
        <mxCell id="oVFW0ciJWdJijqjCQ00f-47" value="ClusterQueue(user)" style="rounded=0;whiteSpace=wrap;html=1;fillColor=#d5e8d4;strokeColor=#82b366;" vertex="1" parent="1">
          <mxGeometry x="600" y="280" width="120" height="30" as="geometry" />
        </mxCell>
        <mxCell id="oVFW0ciJWdJijqjCQ00f-75" style="edgeStyle=orthogonalEdgeStyle;rounded=0;orthogonalLoop=1;jettySize=auto;html=1;" edge="1" parent="1" source="oVFW0ciJWdJijqjCQ00f-48" target="oVFW0ciJWdJijqjCQ00f-46">
          <mxGeometry relative="1" as="geometry">
            <Array as="points">
              <mxPoint x="830" y="270" />
              <mxPoint x="750" y="270" />
            </Array>
          </mxGeometry>
        </mxCell>
        <mxCell id="oVFW0ciJWdJijqjCQ00f-48" value="ClusterQueue(pub)" style="rounded=0;whiteSpace=wrap;html=1;fillColor=#d5e8d4;strokeColor=#82b366;" vertex="1" parent="1">
          <mxGeometry x="770" y="280" width="120" height="30" as="geometry" />
        </mxCell>
        <mxCell id="oVFW0ciJWdJijqjCQ00f-67" value="" style="edgeStyle=orthogonalEdgeStyle;rounded=0;orthogonalLoop=1;jettySize=auto;html=1;fillColor=#dae8fc;strokeColor=#6c8ebf;" edge="1" parent="1" source="oVFW0ciJWdJijqjCQ00f-58" target="oVFW0ciJWdJijqjCQ00f-66">
          <mxGeometry relative="1" as="geometry" />
        </mxCell>
        <mxCell id="oVFW0ciJWdJijqjCQ00f-58" value="LocalQueue(user-ns)" style="rounded=0;whiteSpace=wrap;html=1;fillColor=#e1d5e7;strokeColor=#9673a6;" vertex="1" parent="1">
          <mxGeometry x="245" y="400" width="120" height="30" as="geometry" />
        </mxCell>
        <mxCell id="oVFW0ciJWdJijqjCQ00f-59" style="edgeStyle=orthogonalEdgeStyle;rounded=0;orthogonalLoop=1;jettySize=auto;html=1;entryX=0.464;entryY=0.059;entryDx=0;entryDy=0;entryPerimeter=0;fillColor=#e1d5e7;strokeColor=#9673a6;" edge="1" parent="1" source="oVFW0ciJWdJijqjCQ00f-4" target="oVFW0ciJWdJijqjCQ00f-58">
          <mxGeometry relative="1" as="geometry" />
        </mxCell>
        <mxCell id="oVFW0ciJWdJijqjCQ00f-69" value="" style="edgeStyle=orthogonalEdgeStyle;rounded=0;orthogonalLoop=1;jettySize=auto;html=1;fillColor=#dae8fc;strokeColor=#6c8ebf;" edge="1" parent="1" source="oVFW0ciJWdJijqjCQ00f-60" target="oVFW0ciJWdJijqjCQ00f-68">
          <mxGeometry relative="1" as="geometry" />
        </mxCell>
        <mxCell id="oVFW0ciJWdJijqjCQ00f-60" value="LocalQueue(user-ns)" style="rounded=0;whiteSpace=wrap;html=1;fillColor=#e1d5e7;strokeColor=#9673a6;" vertex="1" parent="1">
          <mxGeometry x="600" y="400" width="120" height="30" as="geometry" />
        </mxCell>
        <mxCell id="oVFW0ciJWdJijqjCQ00f-62" value="" style="endArrow=classic;html=1;rounded=0;exitX=0.5;exitY=1;exitDx=0;exitDy=0;entryX=0.5;entryY=0;entryDx=0;entryDy=0;fillColor=#e1d5e7;strokeColor=#9673a6;" edge="1" parent="1" source="oVFW0ciJWdJijqjCQ00f-47" target="oVFW0ciJWdJijqjCQ00f-60">
          <mxGeometry width="50" height="50" relative="1" as="geometry">
            <mxPoint x="560" y="340" as="sourcePoint" />
            <mxPoint x="610" y="290" as="targetPoint" />
          </mxGeometry>
        </mxCell>
        <mxCell id="oVFW0ciJWdJijqjCQ00f-64" value="workload(user-job)" style="rounded=0;whiteSpace=wrap;html=1;fillColor=#dae8fc;strokeColor=#6c8ebf;" vertex="1" parent="1">
          <mxGeometry x="70" y="510" width="120" height="30" as="geometry" />
        </mxCell>
        <mxCell id="oVFW0ciJWdJijqjCQ00f-66" value="workload(user-job)" style="rounded=0;whiteSpace=wrap;html=1;fillColor=#dae8fc;strokeColor=#6c8ebf;" vertex="1" parent="1">
          <mxGeometry x="245" y="510" width="120" height="30" as="geometry" />
        </mxCell>
        <mxCell id="oVFW0ciJWdJijqjCQ00f-68" value="workload(user-job)" style="rounded=0;whiteSpace=wrap;html=1;fillColor=#dae8fc;strokeColor=#6c8ebf;" vertex="1" parent="1">
          <mxGeometry x="600" y="510" width="120" height="30" as="geometry" />
        </mxCell>
        <mxCell id="oVFW0ciJWdJijqjCQ00f-70" style="edgeStyle=orthogonalEdgeStyle;rounded=0;orthogonalLoop=1;jettySize=auto;html=1;entryX=0.497;entryY=1.093;entryDx=0;entryDy=0;entryPerimeter=0;fillColor=#fff2cc;strokeColor=#d6b656;dashed=1;dashPattern=8 8;" edge="1" parent="1" source="oVFW0ciJWdJijqjCQ00f-2" target="oVFW0ciJWdJijqjCQ00f-5">
          <mxGeometry relative="1" as="geometry">
            <Array as="points">
              <mxPoint x="240" y="170" />
              <mxPoint x="100" y="170" />
            </Array>
          </mxGeometry>
        </mxCell>
        <mxCell id="oVFW0ciJWdJijqjCQ00f-74" style="edgeStyle=orthogonalEdgeStyle;rounded=0;orthogonalLoop=1;jettySize=auto;html=1;entryX=0.312;entryY=1.03;entryDx=0;entryDy=0;entryPerimeter=0;" edge="1" parent="1" source="oVFW0ciJWdJijqjCQ00f-47" target="oVFW0ciJWdJijqjCQ00f-46">
          <mxGeometry relative="1" as="geometry">
            <Array as="points">
              <mxPoint x="660" y="270" />
              <mxPoint x="727" y="270" />
            </Array>
          </mxGeometry>
        </mxCell>
        <mxCell id="oVFW0ciJWdJijqjCQ00f-78" value="Node" style="rounded=0;whiteSpace=wrap;html=1;fillColor=#dae8fc;strokeColor=#6c8ebf;" vertex="1" parent="1">
          <mxGeometry x="40" y="-20" width="40" height="20" as="geometry" />
        </mxCell>
        <mxCell id="oVFW0ciJWdJijqjCQ00f-79" value="Node" style="rounded=0;whiteSpace=wrap;html=1;fillColor=#dae8fc;strokeColor=#6c8ebf;" vertex="1" parent="1">
          <mxGeometry x="120" y="-20" width="40" height="20" as="geometry" />
        </mxCell>
        <mxCell id="oVFW0ciJWdJijqjCQ00f-80" value="Node" style="rounded=0;whiteSpace=wrap;html=1;fillColor=#dae8fc;strokeColor=#6c8ebf;" vertex="1" parent="1">
          <mxGeometry x="120" y="-60" width="40" height="20" as="geometry" />
        </mxCell>
        <mxCell id="oVFW0ciJWdJijqjCQ00f-81" value="Node" style="rounded=0;whiteSpace=wrap;html=1;fillColor=#dae8fc;strokeColor=#6c8ebf;" vertex="1" parent="1">
          <mxGeometry x="200" y="-60" width="40" height="20" as="geometry" />
        </mxCell>
        <mxCell id="oVFW0ciJWdJijqjCQ00f-82" value="Node" style="rounded=0;whiteSpace=wrap;html=1;fillColor=#dae8fc;strokeColor=#6c8ebf;" vertex="1" parent="1">
          <mxGeometry x="200" y="-20" width="40" height="20" as="geometry" />
        </mxCell>
        <mxCell id="oVFW0ciJWdJijqjCQ00f-83" value="Node" style="rounded=0;whiteSpace=wrap;html=1;fillColor=#dae8fc;strokeColor=#6c8ebf;" vertex="1" parent="1">
          <mxGeometry x="280" y="-20" width="40" height="20" as="geometry" />
        </mxCell>
        <mxCell id="oVFW0ciJWdJijqjCQ00f-84" value="Node" style="rounded=0;whiteSpace=wrap;html=1;fillColor=#dae8fc;strokeColor=#6c8ebf;" vertex="1" parent="1">
          <mxGeometry x="280" y="-60" width="40" height="20" as="geometry" />
        </mxCell>
        <mxCell id="oVFW0ciJWdJijqjCQ00f-85" value="Node" style="rounded=0;whiteSpace=wrap;html=1;fillColor=#dae8fc;strokeColor=#6c8ebf;" vertex="1" parent="1">
          <mxGeometry x="360" y="-60" width="40" height="20" as="geometry" />
        </mxCell>
        <mxCell id="oVFW0ciJWdJijqjCQ00f-86" value="Node" style="rounded=0;whiteSpace=wrap;html=1;fillColor=#dae8fc;strokeColor=#6c8ebf;" vertex="1" parent="1">
          <mxGeometry x="360" y="-20" width="40" height="20" as="geometry" />
        </mxCell>
        <mxCell id="oVFW0ciJWdJijqjCQ00f-87" value="Node" style="rounded=0;whiteSpace=wrap;html=1;fillColor=#dae8fc;strokeColor=#6c8ebf;" vertex="1" parent="1">
          <mxGeometry x="440" y="-20" width="40" height="20" as="geometry" />
        </mxCell>
        <mxCell id="oVFW0ciJWdJijqjCQ00f-88" value="Node" style="rounded=0;whiteSpace=wrap;html=1;fillColor=#dae8fc;strokeColor=#6c8ebf;" vertex="1" parent="1">
          <mxGeometry x="440" y="-60" width="40" height="20" as="geometry" />
        </mxCell>
        <mxCell id="oVFW0ciJWdJijqjCQ00f-89" value="Node" style="rounded=0;whiteSpace=wrap;html=1;fillColor=#dae8fc;strokeColor=#6c8ebf;" vertex="1" parent="1">
          <mxGeometry x="520" y="-60" width="40" height="20" as="geometry" />
        </mxCell>
        <mxCell id="oVFW0ciJWdJijqjCQ00f-90" value="Node" style="rounded=0;whiteSpace=wrap;html=1;fillColor=#dae8fc;strokeColor=#6c8ebf;" vertex="1" parent="1">
          <mxGeometry x="520" y="-20" width="40" height="20" as="geometry" />
        </mxCell>
        <mxCell id="oVFW0ciJWdJijqjCQ00f-91" value="Node" style="rounded=0;whiteSpace=wrap;html=1;fillColor=#dae8fc;strokeColor=#6c8ebf;" vertex="1" parent="1">
          <mxGeometry x="600" y="-20" width="40" height="20" as="geometry" />
        </mxCell>
        <mxCell id="oVFW0ciJWdJijqjCQ00f-92" value="Node" style="rounded=0;whiteSpace=wrap;html=1;fillColor=#dae8fc;strokeColor=#6c8ebf;" vertex="1" parent="1">
          <mxGeometry x="600" y="-60" width="40" height="20" as="geometry" />
        </mxCell>
        <mxCell id="oVFW0ciJWdJijqjCQ00f-93" value="Node" style="rounded=0;whiteSpace=wrap;html=1;fillColor=#dae8fc;strokeColor=#6c8ebf;" vertex="1" parent="1">
          <mxGeometry x="680" y="-60" width="40" height="20" as="geometry" />
        </mxCell>
        <mxCell id="oVFW0ciJWdJijqjCQ00f-94" value="Node" style="rounded=0;whiteSpace=wrap;html=1;fillColor=#dae8fc;strokeColor=#6c8ebf;" vertex="1" parent="1">
          <mxGeometry x="680" y="-20" width="40" height="20" as="geometry" />
        </mxCell>
        <mxCell id="oVFW0ciJWdJijqjCQ00f-95" value="Node" style="rounded=0;whiteSpace=wrap;html=1;fillColor=#dae8fc;strokeColor=#6c8ebf;" vertex="1" parent="1">
          <mxGeometry x="760" y="-20" width="40" height="20" as="geometry" />
        </mxCell>
        <mxCell id="oVFW0ciJWdJijqjCQ00f-96" value="Node" style="rounded=0;whiteSpace=wrap;html=1;fillColor=#dae8fc;strokeColor=#6c8ebf;" vertex="1" parent="1">
          <mxGeometry x="760" y="-60" width="40" height="20" as="geometry" />
        </mxCell>
        <mxCell id="oVFW0ciJWdJijqjCQ00f-97" value="Node" style="rounded=0;whiteSpace=wrap;html=1;fillColor=#dae8fc;strokeColor=#6c8ebf;" vertex="1" parent="1">
          <mxGeometry x="840" y="-60" width="40" height="20" as="geometry" />
        </mxCell>
        <mxCell id="oVFW0ciJWdJijqjCQ00f-98" value="Node" style="rounded=0;whiteSpace=wrap;html=1;fillColor=#dae8fc;strokeColor=#6c8ebf;" vertex="1" parent="1">
          <mxGeometry x="840" y="-20" width="40" height="20" as="geometry" />
        </mxCell>
        <mxCell id="oVFW0ciJWdJijqjCQ00f-99" value="Node" style="rounded=0;whiteSpace=wrap;html=1;fillColor=#dae8fc;strokeColor=#6c8ebf;" vertex="1" parent="1">
          <mxGeometry x="920" y="-20" width="40" height="20" as="geometry" />
        </mxCell>
        <mxCell id="oVFW0ciJWdJijqjCQ00f-100" value="Node" style="rounded=0;whiteSpace=wrap;html=1;fillColor=#dae8fc;strokeColor=#6c8ebf;" vertex="1" parent="1">
          <mxGeometry x="920" y="-60" width="40" height="20" as="geometry" />
        </mxCell>
        <mxCell id="oVFW0ciJWdJijqjCQ00f-103" value="Pub CPU ResourceFlavor" style="rounded=0;whiteSpace=wrap;html=1;fillColor=#ffe6cc;strokeColor=#d79b00;" vertex="1" parent="1">
          <mxGeometry x="560" y="70" width="120" height="30" as="geometry" />
        </mxCell>
        <mxCell id="oVFW0ciJWdJijqjCQ00f-104" value="Pub GPU ResourceFlavor" style="rounded=0;whiteSpace=wrap;html=1;fillColor=#ffe6cc;strokeColor=#d79b00;" vertex="1" parent="1">
          <mxGeometry x="827" y="70" width="120" height="30" as="geometry" />
        </mxCell>
        <mxCell id="oVFW0ciJWdJijqjCQ00f-111" style="edgeStyle=orthogonalEdgeStyle;rounded=0;orthogonalLoop=1;jettySize=auto;html=1;entryX=0.305;entryY=0.997;entryDx=0;entryDy=0;entryPerimeter=0;dashed=1;dashPattern=8 8;fillColor=#fff2cc;strokeColor=#d6b656;" edge="1" parent="1" source="oVFW0ciJWdJijqjCQ00f-5" target="oVFW0ciJWdJijqjCQ00f-101">
          <mxGeometry relative="1" as="geometry" />
        </mxCell>
        <mxCell id="oVFW0ciJWdJijqjCQ00f-113" style="edgeStyle=orthogonalEdgeStyle;rounded=0;orthogonalLoop=1;jettySize=auto;html=1;entryX=0.334;entryY=1;entryDx=0;entryDy=0;entryPerimeter=0;dashed=1;dashPattern=8 8;fillColor=#fff2cc;strokeColor=#d6b656;" edge="1" parent="1" source="oVFW0ciJWdJijqjCQ00f-40" target="oVFW0ciJWdJijqjCQ00f-109">
          <mxGeometry relative="1" as="geometry" />
        </mxCell>
        <mxCell id="oVFW0ciJWdJijqjCQ00f-115" style="edgeStyle=orthogonalEdgeStyle;rounded=0;orthogonalLoop=1;jettySize=auto;html=1;entryX=0.389;entryY=1.027;entryDx=0;entryDy=0;entryPerimeter=0;dashed=1;dashPattern=8 8;fillColor=#fff2cc;strokeColor=#d6b656;" edge="1" parent="1" source="oVFW0ciJWdJijqjCQ00f-103" target="oVFW0ciJWdJijqjCQ00f-110">
          <mxGeometry relative="1" as="geometry" />
        </mxCell>
        <mxCell id="oVFW0ciJWdJijqjCQ00f-116" style="edgeStyle=orthogonalEdgeStyle;rounded=0;orthogonalLoop=1;jettySize=auto;html=1;entryX=0.419;entryY=1;entryDx=0;entryDy=0;entryPerimeter=0;dashed=1;dashPattern=8 8;fillColor=#fff2cc;strokeColor=#d6b656;" edge="1" parent="1" source="oVFW0ciJWdJijqjCQ00f-104" target="oVFW0ciJWdJijqjCQ00f-114">
          <mxGeometry relative="1" as="geometry" />
        </mxCell>
        <mxCell id="oVFW0ciJWdJijqjCQ00f-120" style="edgeStyle=orthogonalEdgeStyle;rounded=0;orthogonalLoop=1;jettySize=auto;html=1;entryX=0.682;entryY=0.941;entryDx=0;entryDy=0;entryPerimeter=0;fillColor=#f8cecc;strokeColor=#b85450;dashed=1;dashPattern=8 8;" edge="1" parent="1" source="oVFW0ciJWdJijqjCQ00f-46" target="oVFW0ciJWdJijqjCQ00f-5">
          <mxGeometry relative="1" as="geometry">
            <Array as="points">
              <mxPoint x="770" y="150" />
              <mxPoint x="122" y="150" />
            </Array>
          </mxGeometry>
        </mxCell>
        <mxCell id="oVFW0ciJWdJijqjCQ00f-121" style="edgeStyle=orthogonalEdgeStyle;rounded=0;orthogonalLoop=1;jettySize=auto;html=1;entryX=0.647;entryY=1.094;entryDx=0;entryDy=0;entryPerimeter=0;fillColor=#f8cecc;strokeColor=#b85450;dashed=1;dashPattern=8 8;" edge="1" parent="1" source="oVFW0ciJWdJijqjCQ00f-46" target="oVFW0ciJWdJijqjCQ00f-40">
          <mxGeometry relative="1" as="geometry">
            <Array as="points">
              <mxPoint x="770" y="150" />
              <mxPoint x="358" y="150" />
            </Array>
          </mxGeometry>
        </mxCell>
        <mxCell id="oVFW0ciJWdJijqjCQ00f-122" style="edgeStyle=orthogonalEdgeStyle;rounded=0;orthogonalLoop=1;jettySize=auto;html=1;entryX=0.654;entryY=1.005;entryDx=0;entryDy=0;entryPerimeter=0;fillColor=#f8cecc;strokeColor=#b85450;dashed=1;dashPattern=8 8;" edge="1" parent="1" source="oVFW0ciJWdJijqjCQ00f-46" target="oVFW0ciJWdJijqjCQ00f-103">
          <mxGeometry relative="1" as="geometry">
            <Array as="points">
              <mxPoint x="770" y="150" />
              <mxPoint x="638" y="150" />
            </Array>
          </mxGeometry>
        </mxCell>
        <mxCell id="oVFW0ciJWdJijqjCQ00f-124" style="edgeStyle=orthogonalEdgeStyle;rounded=0;orthogonalLoop=1;jettySize=auto;html=1;entryX=0.654;entryY=1.017;entryDx=0;entryDy=0;entryPerimeter=0;fillColor=#f8cecc;strokeColor=#b85450;dashed=1;dashPattern=8 8;" edge="1" parent="1" source="oVFW0ciJWdJijqjCQ00f-46" target="oVFW0ciJWdJijqjCQ00f-104">
          <mxGeometry relative="1" as="geometry">
            <Array as="points">
              <mxPoint x="770" y="150" />
              <mxPoint x="906" y="150" />
            </Array>
          </mxGeometry>
        </mxCell>
        <mxCell id="oVFW0ciJWdJijqjCQ00f-127" style="edgeStyle=orthogonalEdgeStyle;rounded=0;orthogonalLoop=1;jettySize=auto;html=1;entryX=0.375;entryY=0.986;entryDx=0;entryDy=0;entryPerimeter=0;exitX=0.75;exitY=1;exitDx=0;exitDy=0;fillColor=#d5e8d4;strokeColor=#82b366;dashed=1;dashPattern=8 8;" edge="1" parent="1" source="oVFW0ciJWdJijqjCQ00f-4" target="oVFW0ciJWdJijqjCQ00f-25">
          <mxGeometry relative="1" as="geometry" />
        </mxCell>
        <mxCell id="oVFW0ciJWdJijqjCQ00f-130" value="dev" style="rounded=0;whiteSpace=wrap;html=1;dashed=1;dashPattern=8 8;" vertex="1" parent="1">
          <mxGeometry x="820" y="-220" width="160" height="100" as="geometry" />
        </mxCell>
        <mxCell id="oVFW0ciJWdJijqjCQ00f-131" value="Node" style="rounded=0;whiteSpace=wrap;html=1;fillColor=#dae8fc;strokeColor=#6c8ebf;" vertex="1" parent="1">
          <mxGeometry x="840" y="-200" width="40" height="20" as="geometry" />
        </mxCell>
        <mxCell id="oVFW0ciJWdJijqjCQ00f-132" value="Node" style="rounded=0;whiteSpace=wrap;html=1;fillColor=#dae8fc;strokeColor=#6c8ebf;" vertex="1" parent="1">
          <mxGeometry x="840" y="-160" width="40" height="20" as="geometry" />
        </mxCell>
        <mxCell id="oVFW0ciJWdJijqjCQ00f-133" value="Node" style="rounded=0;whiteSpace=wrap;html=1;fillColor=#dae8fc;strokeColor=#6c8ebf;" vertex="1" parent="1">
          <mxGeometry x="920" y="-160" width="40" height="20" as="geometry" />
        </mxCell>
        <mxCell id="oVFW0ciJWdJijqjCQ00f-134" value="Node" style="rounded=0;whiteSpace=wrap;html=1;fillColor=#dae8fc;strokeColor=#6c8ebf;" vertex="1" parent="1">
          <mxGeometry x="920" y="-200" width="40" height="20" as="geometry" />
        </mxCell>
        <mxCell id="oVFW0ciJWdJijqjCQ00f-135" value="cron" style="rounded=0;whiteSpace=wrap;html=1;dashed=1;dashPattern=8 8;" vertex="1" parent="1">
          <mxGeometry x="500" y="-220" width="310" height="100" as="geometry" />
        </mxCell>
        <mxCell id="oVFW0ciJWdJijqjCQ00f-136" value="Node" style="rounded=0;whiteSpace=wrap;html=1;fillColor=#dae8fc;strokeColor=#6c8ebf;" vertex="1" parent="1">
          <mxGeometry x="520" y="-200" width="40" height="20" as="geometry" />
        </mxCell>
        <mxCell id="oVFW0ciJWdJijqjCQ00f-137" value="Node" style="rounded=0;whiteSpace=wrap;html=1;fillColor=#dae8fc;strokeColor=#6c8ebf;" vertex="1" parent="1">
          <mxGeometry x="520" y="-160" width="40" height="20" as="geometry" />
        </mxCell>
        <mxCell id="oVFW0ciJWdJijqjCQ00f-138" value="Node" style="rounded=0;whiteSpace=wrap;html=1;fillColor=#dae8fc;strokeColor=#6c8ebf;" vertex="1" parent="1">
          <mxGeometry x="600" y="-160" width="40" height="20" as="geometry" />
        </mxCell>
        <mxCell id="oVFW0ciJWdJijqjCQ00f-139" value="Node" style="rounded=0;whiteSpace=wrap;html=1;fillColor=#dae8fc;strokeColor=#6c8ebf;" vertex="1" parent="1">
          <mxGeometry x="600" y="-200" width="40" height="20" as="geometry" />
        </mxCell>
        <mxCell id="oVFW0ciJWdJijqjCQ00f-140" value="Node" style="rounded=0;whiteSpace=wrap;html=1;fillColor=#dae8fc;strokeColor=#6c8ebf;" vertex="1" parent="1">
          <mxGeometry x="680" y="-200" width="40" height="20" as="geometry" />
        </mxCell>
        <mxCell id="oVFW0ciJWdJijqjCQ00f-141" value="Node" style="rounded=0;whiteSpace=wrap;html=1;fillColor=#dae8fc;strokeColor=#6c8ebf;" vertex="1" parent="1">
          <mxGeometry x="680" y="-160" width="40" height="20" as="geometry" />
        </mxCell>
        <mxCell id="oVFW0ciJWdJijqjCQ00f-142" value="Node" style="rounded=0;whiteSpace=wrap;html=1;fillColor=#dae8fc;strokeColor=#6c8ebf;" vertex="1" parent="1">
          <mxGeometry x="760" y="-160" width="40" height="20" as="geometry" />
        </mxCell>
        <mxCell id="oVFW0ciJWdJijqjCQ00f-143" value="Node" style="rounded=0;whiteSpace=wrap;html=1;fillColor=#dae8fc;strokeColor=#6c8ebf;" vertex="1" parent="1">
          <mxGeometry x="760" y="-200" width="40" height="20" as="geometry" />
        </mxCell>
        <mxCell id="oVFW0ciJWdJijqjCQ00f-144" value="flow" style="rounded=0;whiteSpace=wrap;html=1;dashed=1;dashPattern=8 8;" vertex="1" parent="1">
          <mxGeometry x="265" y="-220" width="225" height="100" as="geometry" />
        </mxCell>
        <mxCell id="oVFW0ciJWdJijqjCQ00f-145" value="dag" style="rounded=0;whiteSpace=wrap;html=1;dashed=1;dashPattern=8 8;" vertex="1" parent="1">
          <mxGeometry x="30" y="-220" width="230" height="100" as="geometry" />
        </mxCell>
        <mxCell id="oVFW0ciJWdJijqjCQ00f-146" value="Node" style="rounded=0;whiteSpace=wrap;html=1;fillColor=#dae8fc;strokeColor=#6c8ebf;" vertex="1" parent="1">
          <mxGeometry x="40" y="-200" width="40" height="20" as="geometry" />
        </mxCell>
        <mxCell id="oVFW0ciJWdJijqjCQ00f-147" value="Node" style="rounded=0;whiteSpace=wrap;html=1;fillColor=#dae8fc;strokeColor=#6c8ebf;" vertex="1" parent="1">
          <mxGeometry x="40" y="-160" width="40" height="20" as="geometry" />
        </mxCell>
        <mxCell id="oVFW0ciJWdJijqjCQ00f-148" value="Node" style="rounded=0;whiteSpace=wrap;html=1;fillColor=#dae8fc;strokeColor=#6c8ebf;" vertex="1" parent="1">
          <mxGeometry x="120" y="-160" width="40" height="20" as="geometry" />
        </mxCell>
        <mxCell id="oVFW0ciJWdJijqjCQ00f-149" value="Node" style="rounded=0;whiteSpace=wrap;html=1;fillColor=#dae8fc;strokeColor=#6c8ebf;" vertex="1" parent="1">
          <mxGeometry x="120" y="-200" width="40" height="20" as="geometry" />
        </mxCell>
        <mxCell id="oVFW0ciJWdJijqjCQ00f-150" value="Node" style="rounded=0;whiteSpace=wrap;html=1;fillColor=#dae8fc;strokeColor=#6c8ebf;" vertex="1" parent="1">
          <mxGeometry x="200" y="-200" width="40" height="20" as="geometry" />
        </mxCell>
        <mxCell id="oVFW0ciJWdJijqjCQ00f-151" value="Node" style="rounded=0;whiteSpace=wrap;html=1;fillColor=#dae8fc;strokeColor=#6c8ebf;" vertex="1" parent="1">
          <mxGeometry x="200" y="-160" width="40" height="20" as="geometry" />
        </mxCell>
        <mxCell id="oVFW0ciJWdJijqjCQ00f-152" value="Node" style="rounded=0;whiteSpace=wrap;html=1;fillColor=#dae8fc;strokeColor=#6c8ebf;" vertex="1" parent="1">
          <mxGeometry x="280" y="-160" width="40" height="20" as="geometry" />
        </mxCell>
        <mxCell id="oVFW0ciJWdJijqjCQ00f-153" value="Node" style="rounded=0;whiteSpace=wrap;html=1;fillColor=#dae8fc;strokeColor=#6c8ebf;" vertex="1" parent="1">
          <mxGeometry x="280" y="-200" width="40" height="20" as="geometry" />
        </mxCell>
        <mxCell id="oVFW0ciJWdJijqjCQ00f-154" value="Node" style="rounded=0;whiteSpace=wrap;html=1;fillColor=#dae8fc;strokeColor=#6c8ebf;" vertex="1" parent="1">
          <mxGeometry x="360" y="-200" width="40" height="20" as="geometry" />
        </mxCell>
        <mxCell id="oVFW0ciJWdJijqjCQ00f-155" value="Node" style="rounded=0;whiteSpace=wrap;html=1;fillColor=#dae8fc;strokeColor=#6c8ebf;" vertex="1" parent="1">
          <mxGeometry x="360" y="-160" width="40" height="20" as="geometry" />
        </mxCell>
        <mxCell id="oVFW0ciJWdJijqjCQ00f-156" value="Node" style="rounded=0;whiteSpace=wrap;html=1;fillColor=#dae8fc;strokeColor=#6c8ebf;" vertex="1" parent="1">
          <mxGeometry x="440" y="-160" width="40" height="20" as="geometry" />
        </mxCell>
        <mxCell id="oVFW0ciJWdJijqjCQ00f-157" value="Node" style="rounded=0;whiteSpace=wrap;html=1;fillColor=#dae8fc;strokeColor=#6c8ebf;" vertex="1" parent="1">
          <mxGeometry x="440" y="-200" width="40" height="20" as="geometry" />
        </mxCell>
        <mxCell id="oVFW0ciJWdJijqjCQ00f-158" value="Meta" style="rounded=0;whiteSpace=wrap;html=1;fillColor=#dae8fc;strokeColor=#6c8ebf;" vertex="1" parent="1">
          <mxGeometry x="1660" y="-170" width="40" height="20" as="geometry" />
        </mxCell>
        <mxCell id="oVFW0ciJWdJijqjCQ00f-164" style="edgeStyle=orthogonalEdgeStyle;rounded=0;orthogonalLoop=1;jettySize=auto;html=1;entryX=0.5;entryY=1;entryDx=0;entryDy=0;startArrow=classic;startFill=1;" edge="1" parent="1" source="oVFW0ciJWdJijqjCQ00f-159" target="oVFW0ciJWdJijqjCQ00f-158">
          <mxGeometry relative="1" as="geometry" />
        </mxCell>
        <mxCell id="oVFW0ciJWdJijqjCQ00f-165" value="parse" style="edgeLabel;html=1;align=center;verticalAlign=middle;resizable=0;points=[];" vertex="1" connectable="0" parent="oVFW0ciJWdJijqjCQ00f-164">
          <mxGeometry x="-0.1637" y="1" relative="1" as="geometry">
            <mxPoint as="offset" />
          </mxGeometry>
        </mxCell>
        <mxCell id="oVFW0ciJWdJijqjCQ00f-159" value="Cluster" style="rounded=0;whiteSpace=wrap;html=1;fillColor=#dae8fc;strokeColor=#6c8ebf;" vertex="1" parent="1">
          <mxGeometry x="1520" y="-90" width="40" height="20" as="geometry" />
        </mxCell>
        <mxCell id="oVFW0ciJWdJijqjCQ00f-161" style="edgeStyle=orthogonalEdgeStyle;rounded=0;orthogonalLoop=1;jettySize=auto;html=1;entryX=0.5;entryY=0;entryDx=0;entryDy=0;" edge="1" parent="1" source="oVFW0ciJWdJijqjCQ00f-160" target="oVFW0ciJWdJijqjCQ00f-158">
          <mxGeometry relative="1" as="geometry" />
        </mxCell>
        <mxCell id="oVFW0ciJWdJijqjCQ00f-163" style="edgeStyle=orthogonalEdgeStyle;rounded=0;orthogonalLoop=1;jettySize=auto;html=1;entryX=0.5;entryY=0;entryDx=0;entryDy=0;" edge="1" parent="1" source="oVFW0ciJWdJijqjCQ00f-160" target="oVFW0ciJWdJijqjCQ00f-159">
          <mxGeometry relative="1" as="geometry" />
        </mxCell>
        <mxCell id="oVFW0ciJWdJijqjCQ00f-160" value="Web" style="rounded=0;whiteSpace=wrap;html=1;fillColor=#dae8fc;strokeColor=#6c8ebf;" vertex="1" parent="1">
          <mxGeometry x="1520" y="-220" width="40" height="20" as="geometry" />
        </mxCell>
        <mxCell id="oVFW0ciJWdJijqjCQ00f-166" value="nginx" style="rounded=0;whiteSpace=wrap;html=1;fillColor=#dae8fc;strokeColor=#6c8ebf;" vertex="1" parent="1">
          <mxGeometry x="1614" y="-270" width="40" height="20" as="geometry" />
        </mxCell>
      </root>
    </mxGraphModel>
  </diagram>
</mxfile>
